<?xml version="1.0" encoding="iso-8859-1"?>
<!-- Generator: Adobe Illustrator 17.0.0, SVG Export Plug-In . SVG Version: 6.00 Build 0)  -->
<!DOCTYPE svg PUBLIC "-//W3C//DTD SVG 1.1//EN" "http://www.w3.org/Graphics/SVG/1.1/DTD/svg11.dtd">
<svg version="1.1" id="&#x56FE;&#x5C42;_1" xmlns="http://www.w3.org/2000/svg" xmlns:xlink="http://www.w3.org/1999/xlink" x="0px"
	 y="0px" width="175.801px" height="187.122px" viewBox="0 0 175.801 187.122" style="enable-background:new 0 0 175.801 187.122;"
	 xml:space="preserve">
<g>
	<path d="M25.109,138.761v4.059H10.671v20.47c0,3.569,1.778,5.354,5.336,5.354c3.531,0,5.296-1.598,5.296-4.794l0.039-1.644
		l0.078-1.855h5.1l0.039,2.485c0,6.579-3.505,9.868-10.514,9.868c-7.245,0-10.867-2.741-10.867-8.224v-1.19v-20.47H0v-4.059h5.179
		v-8.048h5.493v8.048H25.109z"/>
	<path d="M36.879,124.449v5.494h-5.493v-5.494H36.879z M36.879,138.761v33.453h-5.493v-33.453H36.879z"/>
	<path d="M46.49,138.761h5.296l-0.157,4.549l0.157,0.105c1.674-3.429,5.832-5.144,12.476-5.144c5.361,0,8.99,0.84,10.887,2.519
		c1.896,1.68,2.845,4.899,2.845,9.658v21.766h-5.493v-21.346v-1.26c0-2.869-0.615-4.8-1.844-5.791
		c-1.23-0.991-3.596-1.487-7.101-1.487c-7.716,0-11.574,3.254-11.574,9.763v20.121H46.49V138.761z"/>
	<path d="M119.306,138.761v35.623c0,4.852-1.177,8.188-3.531,10.008c-2.354,1.82-6.67,2.729-12.947,2.729
		c-5.597,0-9.416-0.77-11.456-2.31c-2.04-1.54-3.06-4.421-3.06-8.644h5.296c0,2.869,0.595,4.736,1.785,5.599
		c1.19,0.863,3.799,1.295,7.827,1.295c4.185,0,6.996-0.56,8.435-1.68c1.438-1.12,2.158-3.313,2.158-6.579v-6.719l-0.118-0.035
		c-1.412,3.103-5.493,4.654-12.241,4.654c-5.545,0-9.364-1.219-11.456-3.657c-2.093-2.437-3.139-6.888-3.139-13.35
		c0-6.696,1.065-11.273,3.197-13.735c2.131-2.461,6.088-3.692,11.868-3.692c6.146,0,10.161,1.68,12.044,5.039l0.118-0.035
		l-0.275-4.514H119.306z M102.946,142.331c-4.316,0-7.114,0.811-8.396,2.432c-1.282,1.622-1.922,5.174-1.922,10.656
		c0,5.529,0.641,9.116,1.922,10.76c1.281,1.645,4.08,2.467,8.396,2.467c4.368,0,7.245-0.904,8.631-2.712
		c1.386-1.808,2.079-5.57,2.079-11.285c0-5.039-0.693-8.351-2.079-9.938C110.191,143.124,107.314,142.331,102.946,142.331z"/>
	<path d="M134.41,124.449v47.766h-5.493v-47.766H134.41z"/>
	<path d="M170.151,162.101h5.61l0.039,1.225c0,3.476-1.184,5.908-3.551,7.296c-2.367,1.388-6.519,2.082-12.456,2.082
		c-6.905,0-11.436-1.125-13.594-3.377c-2.157-2.251-3.236-6.981-3.236-14.189c0-6.672,1.085-11.151,3.256-13.437
		c2.171-2.286,6.421-3.429,12.751-3.429c6.905,0,11.43,0.991,13.574,2.974c2.144,1.983,3.217,6.159,3.217,12.527v2.625H148.77
		c0,5.272,0.634,8.631,1.903,10.078c1.268,1.447,4.231,2.17,8.886,2.17c4.42,0,7.29-0.344,8.611-1.032
		c1.321-0.688,1.981-2.176,1.981-4.462V162.101z M170.151,152.583l-0.039-1.574c0-3.616-0.667-5.966-2.001-7.051
		c-1.334-1.085-4.211-1.627-8.631-1.627c-4.447,0-7.33,0.636-8.651,1.907c-1.321,1.271-1.981,4.053-1.981,8.345H170.151z"/>
</g>
<g>
	<path fill="#DBDBDB" d="M116.154,112.96c-9.835,0-40.246-1.423-57.5-0.889c-17.289,0.535-23.996,0.521-28.147,0.354
		c-2.794-0.113-4.646-0.583-4.653-2.042c-0.005-1.066,0.881-2.31,2.874-2.339c11.237-0.164,63.183-1.382,70.927-1.719
		c25.751-1.12,39.186,0.121,39.186,2.477C138.84,111.939,129.154,112.96,116.154,112.96z"/>
	<g>
		<path d="M145.851,32.584c-1.188-3.396,4.471-3.601,3.763-6.018c-0.696-2.375-3.805-2.326-5.805-0.368
			c-1-1.837-1.86-3.958-3.901-3.547c-2.099,0.422-3.79,1.714-2.994,5.125c-0.563,0.339-1.522,1.416,0.053,2.829
			c0.801,0.718,1.317,0.467,2.031,0.718c1.603,0.564,2.581,2.87,3.786,4.71c5.825,8.891,6.797,26.396,1.741,33.197
			c-6.638,8.928-14.028,8.911-20.109,9.8c-4.808,0.703-18.577,0.809-32.14-0.998c-8.698-1.159-22.182-2.998-29.175-4.5
			c-6.057-1.301-18.417-4.918-22.047-11.031c-2.018-3.397-2.084-14.015,2.12-23.364c4.929-10.96,11.447-16.674,14.614-18.841
			c3.167-2.167,4.275-1.414,5.467-2.2c1.116-0.736,0.889-1.426,0.179-2.564c2.018-2.104,2.589-3.595,0.69-5.853
			c-1.164-1.384-4.544,0.851-5.796,1.848c-1.528-3.425-3.954-3.465-5.273-2.739c-1.319,0.725,2.328,5.769,0.139,7.595
			C43.729,24.28,36.92,32.881,32.814,40.67c-3.616,6.859-5.42,11.586-6.795,17.836c-1.856,8.438-1.418,12.276,1.921,16.428
			c1.736,2.158,3.515,3.198,4.273,3.976c-2.653,7.301-4.695,21.395-4.437,25.724c0.486-0.151,0.983-0.302,1.481-0.452
			c-0.363,1.083-0.744,2.153-1.081,2.971c-0.689,0.382-1.195,1.002-1.403,2.128c-0.427,2.306,1.168,2.321,4.125,2.321
			c2.726,0,7.733-0.23,7.505-2.321c-0.248-2.275-1.368-3.752-4.716-3.366c0.496-0.859,1.241-2.112,2.146-3.58
			c19.013-4.984,43.756-8.658,62.188-8.283c4.413,0.09,15.282,1.044,23.463,1.782c1.117,1.973,2.4,5.005,3.59,9.64
			c-0.252,0.712-0.354,1.564-0.268,2.614c0.262,3.17,2.718,2.325,6.844,0.793c3.803-1.413,7.89-3.261,6.591-5.784
			c-1.615-3.137-3.518-3.125-7.437-1.668c-0.28,0.104-0.552,0.206-0.821,0.308c-0.182-1.457-0.412-3.337-0.753-5.207
			c0.695,0.06,1.258,0.107,1.656,0.136c0.164-1.212-0.541-4.666-0.603-6.384c1.516-0.078,4.24-0.405,7.922-2.5
			c5.763-3.279,11.663-11.778,12.489-23.85C151.672,49.656,148.403,38.787,145.851,32.584z"/>
		<path d="M79.855,8.174C87.029,5.858,95.015,5.646,102.7,6.76c11.401,1.652,21.607,8.133,24.851,11.21
			c2.174,2.062,0.285-2.483,0.774-2.954c1.151-1.109,4.665,1.812,6.729,1.016c1.297-0.5-5.266-6.467-10.078-9.125
			c-9.959-5.5-20-7.75-30.625-6.625c-13.563,1.436-25.875,8.13-25.077,9.2C70.08,10.564,71.395,10.904,79.855,8.174z"/>
		<ellipse transform="matrix(-0.9207 -0.3902 0.3902 -0.9207 213.8221 115.5002)" cx="118.642" cy="36.033" rx="3.5" ry="4.25"/>
		<ellipse transform="matrix(0.9207 0.3902 -0.3902 0.9207 19.7257 -31.9419)" cx="88.488" cy="32.584" rx="3.588" ry="4.742"/>
		<path d="M82.055,64.931c1.525,6.906,8.297,7.818,13.438,5.424c5.272-2.455,11.161-5.946,13.024-11.219
			c1.999-5.657-4.481-8.91-11.371-9.173C84.62,49.485,79.958,55.431,82.055,64.931z"/>
	</g>
</g>
</svg>
